<svg width="19" height="19" viewBox="0 0 19 19" fill="none" xmlns="http://www.w3.org/2000/svg">
    <path d="M4.32445 6.18102C4.25612 6.24918 4.2019 6.33014 4.16492 6.41928C4.12793 6.50842 4.10889 6.60398 4.10889 6.70049C4.10889 6.797 4.12793 6.89257 4.16492 6.98171C4.2019 7.07085 4.25612 7.15181 4.32445 7.21997L9.26094 12.1565C9.31524 12.2109 9.37975 12.2541 9.45076 12.2835C9.52177 12.313 9.59789 12.3281 9.67476 12.3281C9.75164 12.3281 9.82776 12.313 9.89877 12.2835C9.96978 12.2541 10.0343 12.2109 10.0886 12.1565L15.0251 7.21997C15.3127 6.93235 15.3127 6.46864 15.0251 6.18102C14.7375 5.8934 14.2737 5.8934 13.9861 6.18102L9.6777 10.4894L5.3634 6.17515C5.07578 5.8934 4.61207 5.8934 4.32445 6.18102Z"
          fill="black"/>
</svg>
