<svg width="28" height="27" viewBox="0 0 28 27" fill="none" xmlns="http://www.w3.org/2000/svg">
    <path d="M5.62192 11.9576L13.3875 4.192C13.5956 3.98402 13.8777 3.86719 14.1719 3.86719C14.466 3.86719 14.7482 3.98402 14.9562 4.192L22.7218 11.9576C22.9299 12.1656 23.0468 12.4477 23.0469 12.742V23.3764C23.0469 23.6706 22.93 23.9528 22.7219 24.1609C22.5139 24.3689 22.2317 24.4858 21.9375 24.4858H16.3906V16.7202H11.9531V24.4858H6.40625C6.11203 24.4858 5.82985 24.3689 5.6218 24.1609C5.41376 23.9528 5.29688 23.6706 5.29688 23.3764V12.742C5.29694 12.4477 5.41386 12.1656 5.62192 11.9576V11.9576Z"
          fill="black"/>
</svg>
