<svg width="24" height="24" viewBox="0 0 24 24" fill="none" xmlns="http://www.w3.org/2000/svg">
    <g id="Iconly/Light/Paper">
        <g id="Paper">
            <path id="Stroke 1 (Stroke)"
                  d="M14.7379 2.01172L14.8141 2.01562C14.9901 2.03367 15.1553 2.11339 15.2789 2.24219L20.3434 7.51855C20.4775 7.65823 20.5524 7.84447 20.5524 8.03809V17.1982C20.5703 19.6988 18.6021 21.7628 16.1041 21.8643C16.0941 21.8647 16.0839 21.8652 16.0739 21.8652H8.0846V21.8643C8.06419 21.8646 8.04633 21.8653 8.03284 21.8652C8.00915 21.865 8.00451 21.8652 7.9928 21.8652C7.98735 21.8652 7.98166 21.8644 7.9762 21.8643C5.4491 21.808 3.44565 19.7143 3.50062 17.1875V6.47266C3.55944 3.98618 5.59787 2.00465 8.0846 2.0127V2.01172H14.7379ZM8.08167 3.51172C6.40983 3.50529 5.03999 4.83842 5.00062 6.50879V17.3789C5.04781 19.0061 6.36376 20.3286 8.00941 20.3652H16.0436C17.7334 20.2964 19.0645 18.9003 19.0524 17.209V8.33984L14.4186 3.51172H8.08167Z"
                  fill="black"/>
            <path id="Stroke 3 (Stroke)"
                  d="M13.7251 5.65918V2.75C13.7251 2.33579 14.0609 2 14.4751 2C14.8893 2 15.2251 2.33579 15.2251 2.75V5.65918L15.2349 5.8457C15.3281 6.76448 16.1018 7.48172 17.0454 7.48438H19.7983L19.8745 7.48828C20.2528 7.52658 20.5483 7.84597 20.5483 8.23438C20.5482 8.62263 20.2527 8.94221 19.8745 8.98047L19.7983 8.98438H17.0405C15.2648 8.97913 13.8178 7.58392 13.729 5.83008L13.7251 5.65918Z"
                  fill="black"/>
            <path id="Stroke 5 (Stroke)"
                  d="M14.2883 14.6094L14.3645 14.6133C14.7427 14.6516 15.0383 14.971 15.0383 15.3594C15.0383 15.7477 14.7427 16.0671 14.3645 16.1055L14.2883 16.1094H8.88794C8.47373 16.1094 8.13794 15.7736 8.13794 15.3594C8.13794 14.9452 8.47373 14.6094 8.88794 14.6094H14.2883Z"
                  fill="black"/>
            <path id="Stroke 7 (Stroke)"
                  d="M12.2434 10.8555L12.3196 10.8594C12.6978 10.8978 12.9934 11.2171 12.9934 11.6055C12.9934 11.9938 12.6978 12.3132 12.3196 12.3516L12.2434 12.3555H8.88696C8.47275 12.3555 8.13696 12.0197 8.13696 11.6055C8.13696 11.1913 8.47275 10.8555 8.88696 10.8555H12.2434Z"
                  fill="black"/>
        </g>
    </g>
</svg>
