<svg width="24" height="24" viewBox="0 0 24 24" fill="none" xmlns="http://www.w3.org/2000/svg">
    <path d="M11.9999 4.25C16.1507 4.25 19.702 7.26151 21.6737 9.33594C23.1085 10.8455 23.1085 13.1545 21.6737 14.6641C19.702 16.7385 16.1507 19.75 11.9999 19.75C7.84908 19.75 4.29776 16.7385 2.32608 14.6641C0.891308 13.1545 0.891308 10.8455 2.32608 9.33594C4.29776 7.26151 7.84908 4.25 11.9999 4.25ZM11.9999 5.75C8.51989 5.75 5.35294 8.32902 3.41299 10.3701C2.52892 11.3006 2.52892 12.6994 3.41299 13.6299C5.35294 15.671 8.51989 18.25 11.9999 18.25C15.4799 18.25 18.6469 15.671 20.5868 13.6299C21.4709 12.6994 21.4709 11.3006 20.5868 10.3701C18.6469 8.32902 15.4799 5.75 11.9999 5.75ZM14.2499 12C14.2499 10.7574 13.2425 9.75 11.9999 9.75C10.7573 9.75 9.7499 10.7574 9.7499 12C9.7499 13.2426 10.7573 14.25 11.9999 14.25C13.2425 14.25 14.2499 13.2426 14.2499 12ZM15.7499 12C15.7499 14.0711 14.071 15.75 11.9999 15.75C9.92884 15.75 8.2499 14.0711 8.2499 12C8.2499 9.92893 9.92884 8.25 11.9999 8.25C14.071 8.25 15.7499 9.92893 15.7499 12Z"
          fill="black"/>
</svg>
