<svg width="24" height="24" viewBox="0 0 24 24" fill="none" xmlns="http://www.w3.org/2000/svg">
    <path d="M3.46987 3.46967C3.76277 3.17678 4.23753 3.17678 4.53042 3.46967L20.5304 19.4697L20.5822 19.5263C20.8225 19.8209 20.805 20.2556 20.5304 20.5302C20.2558 20.8048 19.8211 20.8223 19.5265 20.582L19.4699 20.5302L17.1935 18.2538C15.6625 19.1182 13.8983 19.7499 12.0001 19.7499C7.84933 19.7499 4.298 16.7384 2.32632 14.664C0.891552 13.1544 0.891552 10.8455 2.32632 9.33588C3.15466 8.46437 4.23665 7.4548 5.50601 6.56635L3.46987 4.53022L3.41812 4.47358C3.17781 4.17899 3.19527 3.74427 3.46987 3.46967ZM6.58609 7.64643C5.33051 8.49376 4.24539 9.49451 3.41323 10.3701C2.52916 11.3005 2.52916 12.6994 3.41323 13.6298C5.35318 15.6709 8.52013 18.2499 12.0001 18.2499C13.4279 18.2499 14.8095 17.8153 16.088 17.1484L14.0656 15.1259C13.4729 15.5181 12.7637 15.7499 12.0001 15.7499C9.92908 15.7499 8.25015 14.071 8.25015 11.9999C8.25015 11.2363 8.4809 10.5263 8.8732 9.93354L6.58609 7.64643ZM12.0001 4.24994C16.151 4.24994 19.7023 7.26146 21.674 9.33588C23.1087 10.8455 23.1087 13.1544 21.674 14.664C21.2203 15.1413 20.6925 15.6586 20.1007 16.1738L20.0402 16.2206C19.7298 16.4401 19.2972 16.3933 19.0421 16.1005C18.7702 15.7881 18.803 15.3139 19.1154 15.0419C19.6663 14.5623 20.1606 14.0785 20.5871 13.6298C21.4711 12.6994 21.4711 11.3005 20.5871 10.3701C18.6471 8.32896 15.4802 5.74994 12.0001 5.74994C11.1949 5.74994 10.404 5.88735 9.63687 6.12787C9.24169 6.25164 8.82132 6.03182 8.69741 5.63666C8.57364 5.24149 8.79346 4.82111 9.18862 4.69721C10.0804 4.41759 11.0226 4.24994 12.0001 4.24994ZM9.75015 11.9999C9.75015 13.2426 10.7575 14.2499 12.0001 14.2499C12.3477 14.2499 12.6754 14.1697 12.9689 14.0292L9.96987 11.0302C9.82934 11.3238 9.75015 11.6522 9.75015 11.9999Z"
          fill="black"/>
</svg>
